<mxfile host="" modified="2021-03-12T01:58:27.363Z" agent="5.0 (Windows NT 6.2; Win64; x64) AppleWebKit/537.36 (KHTML, like Gecko) Chrome/84.0.4147.105 Safari/537.36" etag="ylYJHLs1bgI16_g7SN-w" version="13.7.9" type="embed"><diagram id="N3TjZAU_rv8jxYzPOWmI" name="Page-1"><mxGraphModel dx="625" dy="388" grid="1" gridSize="10" guides="1" tooltips="1" connect="1" arrows="1" fold="1" page="1" pageScale="1" pageWidth="850" pageHeight="1100" math="0" shadow="0"><root><mxCell id="0"/><mxCell id="1" parent="0"/><mxCell id="vliEjlQN6Ra9aHtbRf_l-4" style="edgeStyle=orthogonalEdgeStyle;rounded=0;orthogonalLoop=1;jettySize=auto;html=1;entryX=0.5;entryY=0;entryDx=0;entryDy=0;" parent="1" source="vliEjlQN6Ra9aHtbRf_l-1" target="vliEjlQN6Ra9aHtbRf_l-2" edge="1"><mxGeometry relative="1" as="geometry"/></mxCell><mxCell id="vliEjlQN6Ra9aHtbRf_l-5" style="edgeStyle=orthogonalEdgeStyle;rounded=0;orthogonalLoop=1;jettySize=auto;html=1;" parent="1" source="vliEjlQN6Ra9aHtbRf_l-1" target="vliEjlQN6Ra9aHtbRf_l-3" edge="1"><mxGeometry relative="1" as="geometry"/></mxCell><mxCell id="vliEjlQN6Ra9aHtbRf_l-1" value="50" style="rounded=0;whiteSpace=wrap;html=1;" parent="1" vertex="1"><mxGeometry x="605" y="10" width="40" height="20" as="geometry"/></mxCell><mxCell id="vliEjlQN6Ra9aHtbRf_l-11" style="edgeStyle=orthogonalEdgeStyle;rounded=0;orthogonalLoop=1;jettySize=auto;html=1;" parent="1" source="vliEjlQN6Ra9aHtbRf_l-2" target="vliEjlQN6Ra9aHtbRf_l-8" edge="1"><mxGeometry relative="1" as="geometry"/></mxCell><mxCell id="vliEjlQN6Ra9aHtbRf_l-12" style="edgeStyle=orthogonalEdgeStyle;rounded=0;orthogonalLoop=1;jettySize=auto;html=1;" parent="1" source="vliEjlQN6Ra9aHtbRf_l-2" target="vliEjlQN6Ra9aHtbRf_l-9" edge="1"><mxGeometry relative="1" as="geometry"/></mxCell><mxCell id="vliEjlQN6Ra9aHtbRf_l-2" value="20" style="rounded=0;whiteSpace=wrap;html=1;" parent="1" vertex="1"><mxGeometry x="540" y="60" width="40" height="20" as="geometry"/></mxCell><mxCell id="vliEjlQN6Ra9aHtbRf_l-7" style="edgeStyle=orthogonalEdgeStyle;rounded=0;orthogonalLoop=1;jettySize=auto;html=1;entryX=0.5;entryY=0;entryDx=0;entryDy=0;" parent="1" source="vliEjlQN6Ra9aHtbRf_l-3" target="vliEjlQN6Ra9aHtbRf_l-6" edge="1"><mxGeometry relative="1" as="geometry"/></mxCell><mxCell id="vliEjlQN6Ra9aHtbRf_l-3" value="60" style="rounded=0;whiteSpace=wrap;html=1;" parent="1" vertex="1"><mxGeometry x="690" y="60" width="40" height="20" as="geometry"/></mxCell><mxCell id="vliEjlQN6Ra9aHtbRf_l-15" style="edgeStyle=orthogonalEdgeStyle;rounded=0;orthogonalLoop=1;jettySize=auto;html=1;" parent="1" source="vliEjlQN6Ra9aHtbRf_l-6" target="vliEjlQN6Ra9aHtbRf_l-14" edge="1"><mxGeometry relative="1" as="geometry"/></mxCell><mxCell id="vliEjlQN6Ra9aHtbRf_l-17" style="edgeStyle=orthogonalEdgeStyle;rounded=0;orthogonalLoop=1;jettySize=auto;html=1;entryX=0.5;entryY=0;entryDx=0;entryDy=0;" parent="1" source="vliEjlQN6Ra9aHtbRf_l-6" target="vliEjlQN6Ra9aHtbRf_l-16" edge="1"><mxGeometry relative="1" as="geometry"/></mxCell><mxCell id="vliEjlQN6Ra9aHtbRf_l-6" value="70" style="rounded=0;whiteSpace=wrap;html=1;" parent="1" vertex="1"><mxGeometry x="750" y="110" width="40" height="20" as="geometry"/></mxCell><mxCell id="vliEjlQN6Ra9aHtbRf_l-21" style="edgeStyle=orthogonalEdgeStyle;rounded=0;orthogonalLoop=1;jettySize=auto;html=1;entryX=0.5;entryY=0;entryDx=0;entryDy=0;" parent="1" source="vliEjlQN6Ra9aHtbRf_l-8" target="vliEjlQN6Ra9aHtbRf_l-20" edge="1"><mxGeometry relative="1" as="geometry"><Array as="points"><mxPoint x="500" y="120"/></Array></mxGeometry></mxCell><mxCell id="vliEjlQN6Ra9aHtbRf_l-8" value="10" style="rounded=0;whiteSpace=wrap;html=1;" parent="1" vertex="1"><mxGeometry x="450" y="110" width="40" height="20" as="geometry"/></mxCell><mxCell id="vliEjlQN6Ra9aHtbRf_l-13" style="edgeStyle=orthogonalEdgeStyle;rounded=0;orthogonalLoop=1;jettySize=auto;html=1;entryX=0.5;entryY=0;entryDx=0;entryDy=0;" parent="1" source="vliEjlQN6Ra9aHtbRf_l-9" target="vliEjlQN6Ra9aHtbRf_l-10" edge="1"><mxGeometry relative="1" as="geometry"><Array as="points"><mxPoint x="585" y="120"/></Array></mxGeometry></mxCell><mxCell id="vliEjlQN6Ra9aHtbRf_l-9" value="40" style="rounded=0;whiteSpace=wrap;html=1;" parent="1" vertex="1"><mxGeometry x="610" y="110" width="40" height="20" as="geometry"/></mxCell><mxCell id="vliEjlQN6Ra9aHtbRf_l-23" style="edgeStyle=orthogonalEdgeStyle;rounded=0;orthogonalLoop=1;jettySize=auto;html=1;entryX=0.75;entryY=0;entryDx=0;entryDy=0;" parent="1" source="vliEjlQN6Ra9aHtbRf_l-10" target="vliEjlQN6Ra9aHtbRf_l-22" edge="1"><mxGeometry relative="1" as="geometry"/></mxCell><mxCell id="vliEjlQN6Ra9aHtbRf_l-25" style="edgeStyle=orthogonalEdgeStyle;rounded=0;orthogonalLoop=1;jettySize=auto;html=1;" parent="1" source="vliEjlQN6Ra9aHtbRf_l-10" target="vliEjlQN6Ra9aHtbRf_l-24" edge="1"><mxGeometry relative="1" as="geometry"/></mxCell><mxCell id="vliEjlQN6Ra9aHtbRf_l-10" value="30" style="rounded=0;whiteSpace=wrap;html=1;" parent="1" vertex="1"><mxGeometry x="565" y="160" width="40" height="20" as="geometry"/></mxCell><mxCell id="vliEjlQN6Ra9aHtbRf_l-19" style="edgeStyle=orthogonalEdgeStyle;rounded=0;orthogonalLoop=1;jettySize=auto;html=1;entryX=0.5;entryY=0;entryDx=0;entryDy=0;" parent="1" source="vliEjlQN6Ra9aHtbRf_l-14" target="vliEjlQN6Ra9aHtbRf_l-18" edge="1"><mxGeometry relative="1" as="geometry"/></mxCell><mxCell id="vliEjlQN6Ra9aHtbRf_l-14" value="80" style="rounded=0;whiteSpace=wrap;html=1;fillColor=#f8cecc;strokeColor=#b85450;" parent="1" vertex="1"><mxGeometry x="800" y="150" width="40" height="20" as="geometry"/></mxCell><mxCell id="vliEjlQN6Ra9aHtbRf_l-16" value="65" style="rounded=0;whiteSpace=wrap;html=1;fillColor=#f8cecc;strokeColor=#b85450;" parent="1" vertex="1"><mxGeometry x="700" y="150" width="40" height="20" as="geometry"/></mxCell><mxCell id="vliEjlQN6Ra9aHtbRf_l-18" value="78" style="rounded=0;whiteSpace=wrap;html=1;fillColor=#f8cecc;strokeColor=#b85450;" parent="1" vertex="1"><mxGeometry x="760" y="200" width="40" height="20" as="geometry"/></mxCell><mxCell id="vliEjlQN6Ra9aHtbRf_l-20" value="15" style="rounded=0;whiteSpace=wrap;html=1;" parent="1" vertex="1"><mxGeometry x="480" y="160" width="40" height="20" as="geometry"/></mxCell><mxCell id="vliEjlQN6Ra9aHtbRf_l-22" value="32" style="rounded=0;whiteSpace=wrap;html=1;" parent="1" vertex="1"><mxGeometry x="610" y="200" width="40" height="20" as="geometry"/></mxCell><mxCell id="vliEjlQN6Ra9aHtbRf_l-24" value="25" style="rounded=0;whiteSpace=wrap;html=1;" parent="1" vertex="1"><mxGeometry x="520" y="200" width="40" height="20" as="geometry"/></mxCell><mxCell id="vliEjlQN6Ra9aHtbRf_l-26" style="edgeStyle=orthogonalEdgeStyle;rounded=0;orthogonalLoop=1;jettySize=auto;html=1;entryX=0.5;entryY=0;entryDx=0;entryDy=0;" parent="1" source="vliEjlQN6Ra9aHtbRf_l-28" target="vliEjlQN6Ra9aHtbRf_l-31" edge="1"><mxGeometry relative="1" as="geometry"/></mxCell><mxCell id="vliEjlQN6Ra9aHtbRf_l-27" style="edgeStyle=orthogonalEdgeStyle;rounded=0;orthogonalLoop=1;jettySize=auto;html=1;" parent="1" source="vliEjlQN6Ra9aHtbRf_l-28" target="vliEjlQN6Ra9aHtbRf_l-33" edge="1"><mxGeometry relative="1" as="geometry"/></mxCell><mxCell id="vliEjlQN6Ra9aHtbRf_l-28" value="50" style="rounded=0;whiteSpace=wrap;html=1;" parent="1" vertex="1"><mxGeometry x="125" y="10" width="40" height="20" as="geometry"/></mxCell><mxCell id="vliEjlQN6Ra9aHtbRf_l-29" style="edgeStyle=orthogonalEdgeStyle;rounded=0;orthogonalLoop=1;jettySize=auto;html=1;" parent="1" source="vliEjlQN6Ra9aHtbRf_l-31" target="vliEjlQN6Ra9aHtbRf_l-38" edge="1"><mxGeometry relative="1" as="geometry"/></mxCell><mxCell id="vliEjlQN6Ra9aHtbRf_l-30" style="edgeStyle=orthogonalEdgeStyle;rounded=0;orthogonalLoop=1;jettySize=auto;html=1;" parent="1" source="vliEjlQN6Ra9aHtbRf_l-31" target="vliEjlQN6Ra9aHtbRf_l-40" edge="1"><mxGeometry relative="1" as="geometry"/></mxCell><mxCell id="vliEjlQN6Ra9aHtbRf_l-31" value="15" style="rounded=0;whiteSpace=wrap;html=1;" parent="1" vertex="1"><mxGeometry x="60" y="60" width="40" height="20" as="geometry"/></mxCell><mxCell id="vliEjlQN6Ra9aHtbRf_l-32" style="edgeStyle=orthogonalEdgeStyle;rounded=0;orthogonalLoop=1;jettySize=auto;html=1;entryX=0.5;entryY=0;entryDx=0;entryDy=0;" parent="1" source="vliEjlQN6Ra9aHtbRf_l-33" target="vliEjlQN6Ra9aHtbRf_l-36" edge="1"><mxGeometry relative="1" as="geometry"/></mxCell><mxCell id="vliEjlQN6Ra9aHtbRf_l-33" value="60" style="rounded=0;whiteSpace=wrap;html=1;" parent="1" vertex="1"><mxGeometry x="180" y="60" width="40" height="20" as="geometry"/></mxCell><mxCell id="vliEjlQN6Ra9aHtbRf_l-34" style="edgeStyle=orthogonalEdgeStyle;rounded=0;orthogonalLoop=1;jettySize=auto;html=1;" parent="1" source="vliEjlQN6Ra9aHtbRf_l-36" target="vliEjlQN6Ra9aHtbRf_l-45" edge="1"><mxGeometry relative="1" as="geometry"/></mxCell><mxCell id="vliEjlQN6Ra9aHtbRf_l-35" style="edgeStyle=orthogonalEdgeStyle;rounded=0;orthogonalLoop=1;jettySize=auto;html=1;entryX=0.5;entryY=0;entryDx=0;entryDy=0;" parent="1" source="vliEjlQN6Ra9aHtbRf_l-36" target="vliEjlQN6Ra9aHtbRf_l-46" edge="1"><mxGeometry relative="1" as="geometry"/></mxCell><mxCell id="vliEjlQN6Ra9aHtbRf_l-36" value="70" style="rounded=0;whiteSpace=wrap;html=1;" parent="1" vertex="1"><mxGeometry x="240" y="110" width="40" height="20" as="geometry"/></mxCell><mxCell id="vliEjlQN6Ra9aHtbRf_l-38" value="10" style="rounded=0;whiteSpace=wrap;html=1;" parent="1" vertex="1"><mxGeometry x="10" y="100" width="40" height="20" as="geometry"/></mxCell><mxCell id="vliEjlQN6Ra9aHtbRf_l-39" style="edgeStyle=orthogonalEdgeStyle;rounded=0;orthogonalLoop=1;jettySize=auto;html=1;entryX=0.5;entryY=0;entryDx=0;entryDy=0;" parent="1" source="vliEjlQN6Ra9aHtbRf_l-40" edge="1"><mxGeometry relative="1" as="geometry"><Array as="points"><mxPoint x="77.5" y="120"/></Array><mxPoint x="77.5" y="160" as="targetPoint"/></mxGeometry></mxCell><mxCell id="vliEjlQN6Ra9aHtbRf_l-40" value="40" style="rounded=0;whiteSpace=wrap;html=1;" parent="1" vertex="1"><mxGeometry x="102.5" y="110" width="40" height="20" as="geometry"/></mxCell><mxCell id="vliEjlQN6Ra9aHtbRf_l-41" style="edgeStyle=orthogonalEdgeStyle;rounded=0;orthogonalLoop=1;jettySize=auto;html=1;entryX=0.75;entryY=0;entryDx=0;entryDy=0;" parent="1" target="vliEjlQN6Ra9aHtbRf_l-49" edge="1"><mxGeometry relative="1" as="geometry"><mxPoint x="97.5" y="170.02857142857147" as="sourcePoint"/></mxGeometry></mxCell><mxCell id="vliEjlQN6Ra9aHtbRf_l-44" style="edgeStyle=orthogonalEdgeStyle;rounded=0;orthogonalLoop=1;jettySize=auto;html=1;entryX=0.5;entryY=0;entryDx=0;entryDy=0;" parent="1" source="vliEjlQN6Ra9aHtbRf_l-45" target="vliEjlQN6Ra9aHtbRf_l-47" edge="1"><mxGeometry relative="1" as="geometry"/></mxCell><mxCell id="vliEjlQN6Ra9aHtbRf_l-45" value="80" style="rounded=0;whiteSpace=wrap;html=1;fillColor=#f8cecc;strokeColor=#b85450;" parent="1" vertex="1"><mxGeometry x="290" y="150" width="40" height="20" as="geometry"/></mxCell><mxCell id="vliEjlQN6Ra9aHtbRf_l-46" value="65" style="rounded=0;whiteSpace=wrap;html=1;fillColor=#f8cecc;strokeColor=#b85450;" parent="1" vertex="1"><mxGeometry x="190" y="150" width="40" height="20" as="geometry"/></mxCell><mxCell id="vliEjlQN6Ra9aHtbRf_l-47" value="78" style="rounded=0;whiteSpace=wrap;html=1;fillColor=#f8cecc;strokeColor=#b85450;" parent="1" vertex="1"><mxGeometry x="250" y="200" width="40" height="20" as="geometry"/></mxCell><mxCell id="vliEjlQN6Ra9aHtbRf_l-49" value="32" style="rounded=0;whiteSpace=wrap;html=1;" parent="1" vertex="1"><mxGeometry x="102.5" y="200" width="40" height="20" as="geometry"/></mxCell><mxCell id="vliEjlQN6Ra9aHtbRf_l-50" value="25" style="rounded=0;whiteSpace=wrap;html=1;" parent="1" vertex="1"><mxGeometry x="57.5" y="160" width="40" height="20" as="geometry"/></mxCell><mxCell id="2" style="edgeStyle=orthogonalEdgeStyle;rounded=0;orthogonalLoop=1;jettySize=auto;html=1;entryX=0.5;entryY=0;entryDx=0;entryDy=0;" edge="1" parent="1" source="4" target="7"><mxGeometry relative="1" as="geometry"/></mxCell><mxCell id="48" style="edgeStyle=orthogonalEdgeStyle;rounded=0;orthogonalLoop=1;jettySize=auto;html=1;entryX=0.5;entryY=0;entryDx=0;entryDy=0;" edge="1" parent="1" source="4" target="37"><mxGeometry relative="1" as="geometry"/></mxCell><mxCell id="4" value="6" style="rounded=0;whiteSpace=wrap;html=1;" vertex="1" parent="1"><mxGeometry x="355" y="300" width="40" height="20" as="geometry"/></mxCell><mxCell id="33" style="edgeStyle=orthogonalEdgeStyle;rounded=0;orthogonalLoop=1;jettySize=auto;html=1;entryX=0.5;entryY=0;entryDx=0;entryDy=0;" edge="1" parent="1" source="7" target="30"><mxGeometry relative="1" as="geometry"/></mxCell><mxCell id="34" style="edgeStyle=orthogonalEdgeStyle;rounded=0;orthogonalLoop=1;jettySize=auto;html=1;entryX=0.5;entryY=0;entryDx=0;entryDy=0;" edge="1" parent="1" source="7" target="19"><mxGeometry relative="1" as="geometry"/></mxCell><mxCell id="7" value="5" style="rounded=0;whiteSpace=wrap;html=1;" vertex="1" parent="1"><mxGeometry x="290" y="330" width="40" height="20" as="geometry"/></mxCell><mxCell id="19" value="0" style="rounded=0;whiteSpace=wrap;html=1;" vertex="1" parent="1"><mxGeometry x="330" y="360" width="40" height="20" as="geometry"/></mxCell><mxCell id="30" value="4" style="rounded=0;whiteSpace=wrap;html=1;" vertex="1" parent="1"><mxGeometry x="250" y="360" width="40" height="20" as="geometry"/></mxCell><mxCell id="35" style="edgeStyle=orthogonalEdgeStyle;rounded=0;orthogonalLoop=1;jettySize=auto;html=1;entryX=0.5;entryY=0;entryDx=0;entryDy=0;" edge="1" parent="1" source="37"><mxGeometry relative="1" as="geometry"><mxPoint x="400" y="360" as="targetPoint"/></mxGeometry></mxCell><mxCell id="37" value="2" style="rounded=0;whiteSpace=wrap;html=1;" vertex="1" parent="1"><mxGeometry x="420" y="330" width="40" height="20" as="geometry"/></mxCell><mxCell id="49" value="10" style="text;html=1;strokeColor=none;fillColor=none;align=center;verticalAlign=middle;whiteSpace=wrap;rounded=0;" vertex="1" parent="1"><mxGeometry x="465" y="270" width="40" height="20" as="geometry"/></mxCell><mxCell id="50" value="9" style="text;html=1;strokeColor=none;fillColor=none;align=center;verticalAlign=middle;whiteSpace=wrap;rounded=0;" vertex="1" parent="1"><mxGeometry x="540" y="270" width="40" height="20" as="geometry"/></mxCell></root></mxGraphModel></diagram></mxfile>